# xmcd
#
# Track frame offsets:
#	150
#	30630
#	58402
#	80488
#	104440
#	123859
#	144221
#	166334
#	189303
#	212188
#	236503
#	262688
#
# Disc length: 3811 seconds
#
# Revision: 0
# Processed by: cddbd v1.5.2PL0 Copyright (c) Steve Scherf et al.
# Submitted via: EasyCDDAExtractor 16.0.9.1
#
DISCID=9d0ee10c
DTITLE=Thu Phuong - Ha Noi and toi
DYEAR=1900
DGENRE=
TTITLE0=Ha Noi va toi
TTITLE1=Ha Noi ngay tro ve 
TTITLE2=Mong ve  Ha Noi
TTITLE3=Ha Noi ngay thang cu
TTITLE4=Ha Noi mua vang nhung con mua
TTITLE5=Hoa sua
TTITLE6=Ha Noi mua la bay
TTITLE7=Huong ve Ha Noi
TTITLE8=Nho mua thu Ha Noi
TTITLE9=Ha Noi ngay chia xa
TTITLE10=Tim ve Ha Noi xua
TTITLE11=Tim ve pho xua
EXTD=
EXTT0=
EXTT1=
EXTT2=
EXTT3=
EXTT4=
EXTT5=
EXTT6=
EXTT7=
EXTT8=
EXTT9=
EXTT10=
EXTT11=
PLAYORDER=
